<svg width="300" height="379" viewBox="0 0 300 379" fill="none" xmlns="http://www.w3.org/2000/svg">
<path opacity="0.4" d="M16.1565 361.403L0 352.16L24.1743 338.325L40.3232 347.561L16.1565 361.403Z" fill="#D6D8E5"/>
<path d="M16.4893 342.773L3.10876 335.05L16.4893 327.327L29.8623 335.05L16.4893 342.773Z" fill="#D6D8E5"/>
<path d="M16.4893 358.218L3.10876 350.495V335.05L16.4893 342.773V358.218Z" fill="#B1B6C4"/>
<path d="M29.8699 350.495L16.4894 358.218V342.773L29.8699 335.05V350.495Z" fill="#C4C7D6"/>
<path d="M34.4687 345.67C35.6258 345.992 36.8634 345.842 37.9103 345.254C38.7423 345.254 43.2504 343.355 43.8631 344.974C44.4001 346.388 42.4487 347.704 41.4048 347.954C39.1357 348.506 37.4413 349.641 36.5261 349.837C36.1775 349.962 35.8037 350 35.4371 349.947C35.0706 349.895 34.7225 349.753 34.4233 349.535C33.7728 348.854 33.8334 346.479 34.4687 345.67Z" fill="#38226D"/>
<path d="M36.5262 349.406C37.4414 349.21 39.1282 348.075 41.4049 347.523C42.2748 347.311 43.78 346.358 43.9313 345.216C44.1355 346.524 42.3731 347.682 41.4049 347.916C39.1357 348.468 37.4414 349.603 36.5262 349.8C36.1776 349.925 35.8037 349.962 35.4372 349.91C35.0707 349.857 34.7226 349.715 34.4234 349.497C34.2792 349.344 34.1775 349.157 34.1284 348.952C34.465 349.21 34.8571 349.385 35.2734 349.464C35.6898 349.543 36.1188 349.523 36.5262 349.406Z" fill="#9C73FF"/>
<path d="M26.3452 341.305C27.5022 341.628 28.7398 341.478 29.7867 340.889C30.6188 340.889 35.0815 338.991 35.732 340.609C36.269 342.024 34.3175 343.34 33.2813 343.59C31.0121 344.142 29.3178 345.276 28.4025 345.473C28.054 345.598 27.6801 345.636 27.3136 345.583C26.947 345.53 26.599 345.389 26.2998 345.17C25.6493 344.528 25.7174 342.152 26.3452 341.305Z" fill="#38226D"/>
<path d="M28.4025 345.08C29.3178 344.883 31.0045 343.748 33.2812 343.196C34.1511 342.984 35.6563 342.031 35.8076 340.889C36.0118 342.198 34.2494 343.355 33.2812 343.59C31.0121 344.142 29.3178 345.276 28.4025 345.473C28.0539 345.598 27.6801 345.636 27.3135 345.583C26.947 345.53 26.599 345.389 26.2998 345.17C26.1573 345.02 26.0557 344.835 26.0048 344.633C26.3425 344.889 26.7349 345.062 27.151 345.139C27.5672 345.217 27.9956 345.196 28.4025 345.08Z" fill="#9C73FF"/>
<path d="M13.6907 335.7C17.2079 337.213 20.4982 337.486 23.2288 336.033L26.0274 334.415C26.1939 338.03 26.3527 341.502 26.3527 341.502C26.3527 341.502 28.5008 343.128 30.1347 341.676C30.1347 341.676 30.4826 336.608 30.8381 331.616L33.7729 329.922C33.7022 330.188 33.6641 330.463 33.6594 330.739C33.6594 331.684 34.3402 345.776 34.3402 345.776C34.3402 345.776 36.5035 347.061 38.1751 345.617C38.1751 345.617 39.3021 329.286 39.5593 326.707C39.8467 323.772 36.5942 322.327 34.5293 323.076L31.3827 324.249L31.534 322.433C31.829 319.499 28.5689 318.054 26.5115 318.803C24.6357 319.491 11.9586 324.241 11.9586 324.241C12.0374 325.461 12.1864 326.676 12.4048 327.879L7.39752 327.456C7.13279 332.138 10.181 334.157 13.6907 335.7ZM22.4346 327.584L25.7854 325.656C25.7296 325.892 25.6941 326.132 25.6795 326.374L22.4346 327.584Z" fill="#6889CA"/>
<path d="M4.68958 313.145C4.68958 313.145 5.09803 319.37 5.91493 320.27C6.73183 321.17 9.50023 321.783 9.50023 321.783L11.6257 325.247C11.6257 325.247 9.68176 314.143 9.25818 313.901C8.8346 313.659 4.68958 313.145 4.68958 313.145Z" fill="#FFCEA9"/>
<path d="M8.7817 306.224C8.26627 305.983 7.68076 305.939 7.13492 306.099C6.58907 306.259 6.12037 306.613 5.81664 307.094C5.06025 308.387 4.22066 312.842 4.14502 313.599C4.4594 314.023 4.87587 314.362 5.35584 314.582C5.8358 314.803 6.36373 314.899 6.89072 314.862L8.7817 306.224Z" fill="#EDEDED"/>
<path d="M9.53049 306.337C10.6046 306.39 11.4063 306.663 11.5425 306.337C11.6578 305.783 11.7387 305.222 11.7845 304.658C11.6635 304.34 11.5576 304.008 11.5576 304.008C10.2037 303.176 9.7801 301.738 9.59857 300.014C9.29601 297.102 10.8693 294.56 13.7738 294.258C16.512 293.97 18.524 295.892 19.0686 298.531C19.356 299.832 19.9309 302.313 19.1518 304.439C18.7207 305.634 18.1609 306.587 17.639 306.768C17.0971 306.757 16.5565 306.712 16.0203 306.632C16.0203 306.632 15.8766 307.442 15.7783 307.956C15.68 308.47 15.7102 308.75 16.7465 309.386C17.7827 310.021 15.1883 311.33 13.494 311.201C11.7997 311.072 9.89356 310.051 9.37165 308.932C8.74385 307.706 8.78923 306.269 9.53049 306.337Z" fill="#FFCEA9"/>
<path d="M36.806 325.361C36.8054 325.514 36.7646 325.665 36.6876 325.797C36.6106 325.93 36.5002 326.04 36.3673 326.117L28.1605 330.852C28.0273 330.93 27.8759 330.971 27.7217 330.971C27.5676 330.971 27.4162 330.93 27.283 330.852L15.7859 324.211C15.652 324.135 15.5407 324.025 15.4635 323.892C15.3864 323.759 15.3462 323.608 15.3472 323.454V323.394L36.806 325.361Z" fill="#E5E5E5"/>
<path d="M36.3674 326.117L28.1605 330.852C28.0284 330.932 27.8764 330.974 27.7218 330.973V325.361H36.7985C36.7987 325.513 36.759 325.663 36.6834 325.796C36.6078 325.929 36.4988 326.039 36.3674 326.117Z" fill="#E5E5E5"/>
<path d="M28.0319 330.421C27.9392 330.476 27.8334 330.505 27.7255 330.505C27.6176 330.505 27.5118 330.476 27.4192 330.421L15.4606 323.523C15.3093 323.432 15.3093 323.288 15.4606 323.205L24.265 318.114L36.806 325.361L28.0319 330.421Z" fill="#F4F4F4"/>
<path d="M20.3696 325.361L20.4301 325.391L24.265 327.607L26.3678 326.389L26.4283 326.359L22.5329 324.113L20.3696 325.361Z" fill="#BFBFBF"/>
<path d="M20.4302 325.391L24.2651 327.607L26.3678 326.389L22.5329 324.181L20.4302 325.391Z" fill="#E5E5E5"/>
<path d="M33.5535 325.716L34.1056 326.034C34.1323 326.048 34.1622 326.056 34.1926 326.056C34.223 326.056 34.2529 326.048 34.2796 326.034L34.8091 325.731C34.862 325.731 34.8696 325.656 34.8091 325.633L34.2569 325.308C34.2297 325.295 34.2 325.288 34.1699 325.288C34.1399 325.288 34.1102 325.295 34.083 325.308L33.5535 325.618C33.5157 325.648 33.5081 325.693 33.5535 325.716Z" fill="#3A2C6D"/>
<path d="M32.7744 325.247L33.3266 325.565C33.3533 325.579 33.3832 325.587 33.4136 325.587C33.444 325.587 33.4739 325.579 33.5006 325.565L34.03 325.262C34.083 325.262 34.083 325.187 34.03 325.164L33.4779 324.846C33.4512 324.832 33.4213 324.824 33.3909 324.824C33.3605 324.824 33.3306 324.832 33.3039 324.846L32.7744 325.149C32.7366 325.194 32.729 325.247 32.7744 325.247Z" fill="#3A2C6D"/>
<path d="M31.9878 324.816L32.54 325.134C32.5685 325.147 32.5994 325.153 32.6307 325.153C32.6621 325.153 32.693 325.147 32.7215 325.134L33.2434 324.831C33.2964 324.831 33.3039 324.755 33.2434 324.725L32.6913 324.408C32.6646 324.393 32.6347 324.385 32.6043 324.385C32.5739 324.385 32.544 324.393 32.5173 324.408L31.9878 324.71C31.95 324.74 31.9424 324.786 31.9878 324.816Z" fill="#3A2C6D"/>
<path d="M31.2088 324.362L31.7609 324.68C31.7881 324.693 31.8178 324.699 31.8479 324.699C31.878 324.699 31.9077 324.693 31.9349 324.68L32.4644 324.377C32.5173 324.377 32.5249 324.302 32.4644 324.271L31.9122 323.954C31.8837 323.941 31.8527 323.934 31.8214 323.934C31.7901 323.934 31.7592 323.941 31.7307 323.954L31.2088 324.256C31.1709 324.287 31.1634 324.332 31.2088 324.362Z" fill="#3A2C6D"/>
<path d="M30.422 323.908L30.9817 324.226C31.0084 324.241 31.0383 324.248 31.0687 324.248C31.0991 324.248 31.129 324.241 31.1557 324.226L31.6776 323.923C31.7306 323.923 31.7381 323.848 31.6776 323.825L31.1255 323.5C31.0982 323.487 31.0685 323.48 31.0385 323.48C31.0084 323.48 30.9787 323.487 30.9515 323.5L30.422 323.81C30.3842 323.84 30.3766 323.886 30.422 323.908Z" fill="#3A2C6D"/>
<path d="M29.643 323.454L30.1951 323.78C30.2223 323.793 30.252 323.799 30.2821 323.799C30.3122 323.799 30.3419 323.793 30.3691 323.78L30.8986 323.47C30.9515 323.47 30.9591 323.394 30.8986 323.371L30.3464 323.054C30.3184 323.039 30.2872 323.031 30.2556 323.031C30.224 323.031 30.1929 323.039 30.1649 323.054L29.643 323.356C29.6051 323.386 29.5976 323.432 29.643 323.454Z" fill="#3A2C6D"/>
<path d="M28.8639 322.978L29.416 323.296C29.4432 323.308 29.4729 323.315 29.503 323.315C29.5331 323.315 29.5628 323.308 29.59 323.296L30.1195 322.993C30.1724 322.993 30.1724 322.917 30.1195 322.887L29.5673 322.569C29.5401 322.557 29.5104 322.55 29.4803 322.55C29.4503 322.55 29.4206 322.557 29.3933 322.569L28.8639 322.872C28.8185 322.933 28.8185 322.978 28.8639 322.978Z" fill="#3A2C6D"/>
<path d="M28.0773 322.554L28.6295 322.872C28.6561 322.887 28.686 322.894 28.7164 322.894C28.7468 322.894 28.7767 322.887 28.8034 322.872L29.3329 322.569C29.3858 322.569 29.3934 322.494 29.3329 322.471L28.7807 322.146C28.7535 322.133 28.7238 322.126 28.6937 322.126C28.6637 322.126 28.634 322.133 28.6068 322.146L28.0773 322.456C28.0395 322.486 28.0319 322.532 28.0773 322.554Z" fill="#3A2C6D"/>
<path d="M27.2981 322.101L27.8503 322.418C27.877 322.433 27.9069 322.44 27.9373 322.44C27.9677 322.44 27.9976 322.433 28.0243 322.418L28.5537 322.116C28.6067 322.116 28.6067 322.04 28.5537 322.017L27.9864 321.692C27.9598 321.677 27.9298 321.67 27.8995 321.67C27.8691 321.67 27.8391 321.677 27.8125 321.692L27.283 321.995C27.23 322.032 27.23 322.078 27.2981 322.101Z" fill="#3A2C6D"/>
<path d="M26.5116 321.654L27.0637 321.972C27.0922 321.985 27.1232 321.992 27.1545 321.992C27.1858 321.992 27.2168 321.985 27.2453 321.972L27.7672 321.669C27.8201 321.669 27.8277 321.594 27.7672 321.563L27.2301 321.238C27.2035 321.224 27.1736 321.216 27.1432 321.216C27.1128 321.216 27.0829 321.224 27.0562 321.238L26.5267 321.541C26.4738 321.579 26.4738 321.624 26.5116 321.654Z" fill="#3A2C6D"/>
<path d="M25.7173 321.2L26.2695 321.518C26.2967 321.531 26.3264 321.538 26.3564 321.538C26.3865 321.538 26.4162 321.531 26.4434 321.518L26.9729 321.216C27.0258 321.216 27.0334 321.14 26.9729 321.11L26.4737 320.784C26.4452 320.771 26.4142 320.765 26.3829 320.765C26.3516 320.765 26.3206 320.771 26.2921 320.784L25.7702 321.087C25.7173 321.125 25.7173 321.17 25.7173 321.2Z" fill="#3A2C6D"/>
<path d="M24.9609 320.747L25.5207 321.064C25.5473 321.079 25.5772 321.086 25.6076 321.086C25.638 321.086 25.668 321.079 25.6946 321.064L26.2241 320.762C26.2695 320.762 26.2771 320.686 26.2241 320.663L25.6719 320.338C25.6447 320.325 25.615 320.319 25.585 320.319C25.5549 320.319 25.5252 320.325 25.498 320.338L24.9685 320.648C24.908 320.709 24.908 320.709 24.9609 320.747Z" fill="#3A2C6D"/>
<path d="M24.2045 320.293L24.7567 320.618C24.7839 320.631 24.8136 320.637 24.8436 320.637C24.8737 320.637 24.9034 320.631 24.9306 320.618L25.4601 320.308C25.5131 320.308 25.5206 320.232 25.4601 320.21L24.9079 319.892C24.8799 319.877 24.8488 319.87 24.8172 319.87C24.7856 319.87 24.7544 319.877 24.7264 319.892L24.2045 320.194C24.1289 320.225 24.1213 320.27 24.2045 320.293Z" fill="#3A2C6D"/>
<path d="M23.0095 319.627L23.9398 320.164C23.9671 320.177 23.9968 320.184 24.0268 320.184C24.0569 320.184 24.0866 320.177 24.1138 320.164L24.6433 319.862C24.6962 319.862 24.6962 319.786 24.6433 319.756L23.7205 319.196C23.6933 319.183 23.6636 319.177 23.6335 319.177C23.6034 319.177 23.5737 319.183 23.5465 319.196L23.017 319.506C23.0091 319.506 23.0011 319.507 22.9936 319.509C22.9861 319.512 22.9791 319.516 22.9732 319.521C22.9672 319.526 22.9623 319.533 22.9588 319.54C22.9553 319.547 22.9533 319.555 22.9528 319.563C22.9523 319.571 22.9533 319.579 22.9559 319.586C22.9585 319.594 22.9625 319.601 22.9678 319.607C22.9731 319.613 22.9795 319.618 22.9866 319.621C22.9938 319.625 23.0015 319.627 23.0095 319.627Z" fill="#3A2C6D"/>
<path d="M31.6323 325.482L32.1921 325.799C32.2188 325.814 32.2487 325.821 32.2791 325.821C32.3095 325.821 32.3394 325.814 32.366 325.799L32.8955 325.497C32.9409 325.497 32.9485 325.421 32.8955 325.398L32.3433 325.081C32.3167 325.066 32.2868 325.059 32.2564 325.059C32.226 325.059 32.1961 325.066 32.1694 325.081L31.6399 325.383C31.5945 325.414 31.5945 325.459 31.6323 325.482Z" fill="#3A2C6D"/>
<path d="M30.8532 325.028L31.4053 325.353C31.4325 325.366 31.4622 325.372 31.4923 325.372C31.5224 325.372 31.5521 325.366 31.5793 325.353L32.1088 325.043C32.1617 325.043 32.1693 324.967 32.1088 324.945L31.5566 324.627C31.5286 324.612 31.4974 324.605 31.4658 324.605C31.4342 324.605 31.4031 324.612 31.3751 324.627L30.8532 324.929C30.8153 324.96 30.8078 325.005 30.8532 325.028Z" fill="#3A2C6D"/>
<path d="M30.0665 324.582L30.6187 324.899C30.6472 324.912 30.6782 324.919 30.7095 324.919C30.7408 324.919 30.7717 324.912 30.8002 324.899L31.3222 324.597C31.3751 324.597 31.3827 324.521 31.3222 324.491L30.77 324.173C30.7428 324.16 30.7131 324.154 30.683 324.154C30.6529 324.154 30.6232 324.16 30.596 324.173L30.0665 324.476C30.0287 324.491 30.0212 324.551 30.0665 324.582Z" fill="#3A2C6D"/>
<path d="M29.2875 324.128L29.8396 324.445C29.8668 324.458 29.8965 324.465 29.9266 324.465C29.9567 324.465 29.9864 324.458 30.0136 324.445L30.5431 324.143C30.596 324.143 30.596 324.067 30.5431 324.037L29.9909 323.719C29.9637 323.706 29.934 323.7 29.9039 323.7C29.8738 323.7 29.8441 323.706 29.8169 323.719L29.2875 324.022C29.2421 324.052 29.2421 324.097 29.2875 324.128Z" fill="#3A2C6D"/>
<path d="M28.5084 323.674L29.0606 323.999C29.0878 324.012 29.1175 324.019 29.1476 324.019C29.1777 324.019 29.2074 324.012 29.2346 323.999L29.764 323.689C29.817 323.689 29.8246 323.613 29.764 323.591L29.2119 323.273C29.1838 323.258 29.1527 323.251 29.1211 323.251C29.0895 323.251 29.0584 323.258 29.0303 323.273L28.5084 323.576C28.4706 323.606 28.4631 323.651 28.5084 323.674Z" fill="#3A2C6D"/>
<path d="M27.7217 323.228L28.2739 323.545C28.3024 323.558 28.3333 323.565 28.3646 323.565C28.3959 323.565 28.4269 323.558 28.4554 323.545L28.9773 323.243C29.0303 323.243 29.0378 323.167 28.9773 323.137L28.4251 322.819C28.3979 322.806 28.3682 322.8 28.3382 322.8C28.3081 322.8 28.2784 322.806 28.2512 322.819L27.7217 323.122C27.6839 323.152 27.6763 323.197 27.7217 323.228Z" fill="#3A2C6D"/>
<path d="M26.9426 322.774L27.4948 323.091C27.522 323.104 27.5517 323.111 27.5818 323.111C27.6118 323.111 27.6415 323.104 27.6687 323.091L28.1982 322.789C28.2512 322.789 28.2512 322.713 28.1982 322.683L27.6461 322.365C27.6188 322.352 27.5891 322.346 27.5591 322.346C27.529 322.346 27.4993 322.352 27.4721 322.365L26.9426 322.668C26.8972 322.698 26.8972 322.743 26.9426 322.774Z" fill="#3A2C6D"/>
<path d="M26.156 322.32L26.7082 322.638C26.7349 322.652 26.7648 322.66 26.7952 322.66C26.8256 322.66 26.8555 322.652 26.8822 322.638L27.4116 322.335C27.4646 322.335 27.4721 322.259 27.4116 322.237L26.8595 321.911C26.831 321.898 26.8 321.892 26.7687 321.892C26.7374 321.892 26.7064 321.898 26.6779 321.911L26.156 322.222C26.1182 322.222 26.1106 322.297 26.156 322.32Z" fill="#3A2C6D"/>
<path d="M25.3694 321.866L25.9291 322.184C25.9558 322.198 25.9857 322.206 26.0161 322.206C26.0465 322.206 26.0764 322.198 26.1031 322.184L26.6326 321.881C26.678 321.881 26.6855 321.806 26.6326 321.783L26.0804 321.465C26.0537 321.451 26.0238 321.443 25.9934 321.443C25.963 321.443 25.9331 321.451 25.9064 321.465L25.377 321.768C25.3316 321.798 25.3316 321.843 25.3694 321.866Z" fill="#3A2C6D"/>
<path d="M24.5902 321.412L25.1424 321.737C25.1696 321.75 25.1993 321.757 25.2294 321.757C25.2595 321.757 25.2892 321.75 25.3164 321.737L25.8458 321.427C25.8988 321.427 25.9063 321.352 25.8458 321.329L25.2937 321.011C25.2656 320.997 25.2345 320.989 25.2029 320.989C25.1713 320.989 25.1402 320.997 25.1121 321.011L24.5902 321.314C24.5524 321.344 24.5448 321.39 24.5902 321.412Z" fill="#3A2C6D"/>
<path d="M23.8036 320.966L24.3558 321.284C24.3843 321.297 24.4152 321.303 24.4465 321.303C24.4778 321.303 24.5088 321.297 24.5373 321.284L25.0592 320.981C25.1122 320.981 25.1197 320.905 25.0592 320.875L24.5071 320.557C24.4798 320.545 24.4501 320.538 24.4201 320.538C24.39 320.538 24.3603 320.545 24.3331 320.557L23.8036 320.86C23.7658 320.89 23.7582 320.936 23.8036 320.966Z" fill="#3A2C6D"/>
<path d="M23.0245 320.512L23.5767 320.83C23.6039 320.843 23.6336 320.849 23.6637 320.849C23.6937 320.849 23.7234 320.843 23.7507 320.83L24.2801 320.527C24.3331 320.527 24.3331 320.452 24.2801 320.421L23.728 320.104C23.7008 320.091 23.671 320.084 23.641 320.084C23.6109 320.084 23.5812 320.091 23.554 320.104L23.0245 320.406C22.9791 320.436 22.9791 320.482 23.0245 320.512Z" fill="#3A2C6D"/>
<path d="M32.419 325.935L33.3493 326.472C33.3765 326.485 33.4062 326.492 33.4363 326.492C33.4664 326.492 33.4961 326.485 33.5233 326.472L34.0528 326.17C34.1057 326.17 34.1133 326.094 34.0528 326.064L33.1224 325.527C33.0939 325.514 33.0629 325.507 33.0316 325.507C33.0003 325.507 32.9694 325.514 32.9409 325.527L32.419 325.837C32.3811 325.867 32.3736 325.913 32.419 325.935Z" fill="#3A2C6D"/>
<path d="M22.9565 319.65L23.5087 319.967C23.5541 319.967 23.5541 320.036 23.5087 320.066L22.949 320.384C22.9251 320.398 22.8976 320.406 22.8695 320.406C22.8415 320.406 22.814 320.398 22.7901 320.384H22.7447C22.7211 320.372 22.6953 320.366 22.6691 320.366C22.6429 320.366 22.617 320.372 22.5934 320.384L22.0035 320.724C21.9772 320.735 21.9489 320.741 21.9203 320.741C21.8917 320.741 21.8634 320.735 21.8371 320.724L21.4891 320.52C21.4437 320.52 21.4437 320.452 21.4891 320.421L22.0413 320.104L22.1547 320.043L22.2379 319.99L22.3211 319.945L22.7901 319.673C22.8133 319.654 22.841 319.643 22.8702 319.639C22.8995 319.635 22.9293 319.639 22.9565 319.65Z" fill="#3A2C6D"/>
<path d="M30.5204 327.463L31.0726 327.781C31.0992 327.796 31.1292 327.803 31.1596 327.803C31.1899 327.803 31.2199 327.796 31.2465 327.781L31.776 327.478C31.829 327.478 31.829 327.403 31.776 327.38L31.2238 327.062C31.1972 327.048 31.1673 327.04 31.1369 327.04C31.1065 327.04 31.0766 327.048 31.0499 327.062L30.5204 327.365C30.4826 327.395 30.475 327.441 30.5204 327.463Z" fill="#3A2C6D"/>
<path d="M29.7413 327.017L30.2935 327.335C30.3207 327.348 30.3504 327.354 30.3805 327.354C30.4105 327.354 30.4402 327.348 30.4674 327.335L30.9969 327.032C31.0499 327.032 31.0499 326.957 30.9969 326.926L30.4448 326.609C30.4175 326.596 30.3878 326.589 30.3578 326.589C30.3277 326.589 30.298 326.596 30.2708 326.609L29.7413 326.911C29.6959 326.941 29.6959 326.987 29.7413 327.017Z" fill="#3A2C6D"/>
<path d="M28.9546 326.563L29.5143 326.881C29.541 326.896 29.5709 326.903 29.6013 326.903C29.6317 326.903 29.6616 326.896 29.6883 326.881L30.2178 326.578C30.2632 326.578 30.2707 326.503 30.2178 326.48L29.6656 326.162C29.6389 326.148 29.609 326.14 29.5786 326.14C29.5482 326.14 29.5183 326.148 29.4916 326.162L28.9622 326.472C28.9168 326.495 28.9168 326.541 28.9546 326.563Z" fill="#3A2C6D"/>
<path d="M22.3135 322.728L22.8657 323.046C22.8937 323.061 22.9248 323.068 22.9564 323.068C22.988 323.068 23.0192 323.061 23.0472 323.046L23.5691 322.743C23.622 322.743 23.6296 322.668 23.5691 322.645L23.0169 322.32C22.9897 322.307 22.96 322.3 22.93 322.3C22.8999 322.3 22.8702 322.307 22.843 322.32L22.3135 322.63C22.2757 322.66 22.2681 322.706 22.3135 322.728Z" fill="#3A2C6D"/>
<path d="M21.5344 322.282L22.0866 322.6C22.1138 322.613 22.1435 322.619 22.1736 322.619C22.2037 322.619 22.2334 322.613 22.2606 322.6L22.79 322.29C22.843 322.29 22.8506 322.222 22.79 322.191L22.2379 321.874C22.2099 321.859 22.1787 321.851 22.1471 321.851C22.1155 321.851 22.0844 321.859 22.0563 321.874L21.5344 322.176C21.4966 322.222 21.4891 322.222 21.5344 322.282Z" fill="#3A2C6D"/>
<path d="M20.7554 321.828L21.3076 322.146C21.3342 322.16 21.3641 322.168 21.3945 322.168C21.4249 322.168 21.4548 322.16 21.4815 322.146L22.011 321.843C22.0639 321.843 22.0715 321.768 22.011 321.745L21.4588 321.42C21.4303 321.407 21.3994 321.4 21.3681 321.4C21.3368 321.4 21.3058 321.407 21.2773 321.42L20.7554 321.73C20.7176 321.76 20.71 321.806 20.7554 321.828Z" fill="#3A2C6D"/>
<path d="M19.9764 321.374L20.5285 321.7C20.5557 321.712 20.5854 321.719 20.6155 321.719C20.6456 321.719 20.6753 321.712 20.7025 321.7L21.232 321.39C21.2849 321.39 21.2849 321.314 21.232 321.291L20.6722 320.974C20.6456 320.959 20.6157 320.951 20.5853 320.951C20.5549 320.951 20.525 320.959 20.4983 320.974L19.9688 321.276C19.9385 321.306 19.931 321.352 19.9764 321.374Z" fill="#3A2C6D"/>
<path d="M27.9865 326.004L28.7429 326.442C28.7714 326.455 28.8024 326.462 28.8337 326.462C28.865 326.462 28.8959 326.455 28.9244 326.442L29.4464 326.14C29.4993 326.14 29.5069 326.064 29.4464 326.034L28.69 325.603C28.6633 325.588 28.6334 325.58 28.603 325.58C28.5726 325.58 28.5427 325.588 28.516 325.603L27.9865 325.905C27.9411 325.928 27.9336 326.004 27.9865 326.004Z" fill="#3A2C6D"/>
<path d="M23.0927 323.182L23.8491 323.613C23.8757 323.628 23.9056 323.636 23.936 323.636C23.9664 323.636 23.9963 323.628 24.023 323.613L24.5525 323.311C24.6054 323.311 24.613 323.235 24.5525 323.205L23.7961 322.774C23.7689 322.761 23.7392 322.754 23.7091 322.754C23.6791 322.754 23.6493 322.761 23.6221 322.774L23.0927 323.076C23.0548 323.107 23.0473 323.152 23.0927 323.182Z" fill="#3A2C6D"/>
<path d="M24.0759 323.734L27.752 325.86C27.7792 325.873 27.8089 325.879 27.8389 325.879C27.869 325.879 27.8987 325.873 27.9259 325.86L28.4554 325.557C28.5084 325.557 28.5084 325.482 28.4554 325.451L24.7869 323.333C24.7589 323.319 24.7277 323.311 24.6961 323.311C24.6645 323.311 24.6334 323.319 24.6054 323.333L24.0835 323.636C24.0381 323.674 24.0305 323.734 24.0759 323.734Z" fill="#3A2C6D"/>
<path d="M30.6641 325.799L31.2162 326.117C31.2429 326.132 31.2728 326.139 31.3032 326.139C31.3336 326.139 31.3635 326.132 31.3902 326.117L31.9197 325.814C31.9726 325.814 31.9802 325.739 31.9197 325.709L31.3675 325.391C31.339 325.378 31.3081 325.371 31.2768 325.371C31.2454 325.371 31.2145 325.378 31.186 325.391L30.6641 325.693C30.6263 325.724 30.6187 325.769 30.6641 325.799Z" fill="#3A2C6D"/>
<path d="M29.885 325.345L30.4372 325.663C30.4639 325.678 30.4938 325.685 30.5242 325.685C30.5546 325.685 30.5845 325.678 30.6112 325.663L31.1406 325.361C31.1936 325.361 31.1936 325.285 31.1406 325.262L30.5885 324.945C30.5618 324.93 30.5319 324.922 30.5015 324.922C30.4711 324.922 30.4412 324.93 30.4145 324.945L29.885 325.247C29.8472 325.247 29.8396 325.323 29.885 325.345Z" fill="#3A2C6D"/>
<path d="M29.0984 324.899L29.6581 325.217C29.6853 325.23 29.715 325.236 29.7451 325.236C29.7752 325.236 29.8049 325.23 29.8321 325.217L30.3616 324.914C30.407 324.914 30.4145 324.839 30.3616 324.808L29.8094 324.491C29.7822 324.478 29.7525 324.471 29.7224 324.471C29.6924 324.471 29.6627 324.478 29.6354 324.491L29.106 324.793C29.0606 324.824 29.0606 324.869 29.0984 324.899Z" fill="#3A2C6D"/>
<path d="M28.3194 324.445L28.8715 324.763C28.8982 324.778 28.9281 324.785 28.9585 324.785C28.9889 324.785 29.0188 324.778 29.0455 324.763L29.575 324.46C29.6279 324.46 29.6355 324.385 29.575 324.355L29.0228 324.037C28.9956 324.024 28.9659 324.017 28.9358 324.017C28.9057 324.017 28.876 324.024 28.8488 324.037L28.3194 324.347C28.2815 324.377 28.274 324.423 28.3194 324.445Z" fill="#3A2C6D"/>
<path d="M27.5402 323.992L28.0923 324.309C28.119 324.324 28.1489 324.331 28.1793 324.331C28.2097 324.331 28.2396 324.324 28.2663 324.309L28.7958 323.999C28.8487 323.999 28.8563 323.923 28.7958 323.901L28.2436 323.583C28.2156 323.568 28.1845 323.561 28.1529 323.561C28.1213 323.561 28.0901 323.568 28.0621 323.583L27.5402 323.886C27.5024 323.923 27.4948 323.969 27.5402 323.992Z" fill="#3A2C6D"/>
<path d="M26.7611 323.545L27.3133 323.863C27.3405 323.876 27.3702 323.882 27.4002 323.882C27.4303 323.882 27.46 323.876 27.4872 323.863L28.0167 323.56C28.0621 323.56 28.0696 323.485 28.0167 323.454L27.4645 323.137C27.4373 323.124 27.4076 323.117 27.3775 323.117C27.3475 323.117 27.3178 323.124 27.2906 323.137L26.7611 323.439C26.7157 323.47 26.7157 323.515 26.7611 323.545Z" fill="#3A2C6D"/>
<path d="M25.9745 323.091L26.5267 323.409C26.5547 323.424 26.5858 323.431 26.6174 323.431C26.649 323.431 26.6802 323.424 26.7082 323.409L27.2301 323.107C27.2831 323.107 27.2906 323.031 27.2301 323.008L26.6779 322.683C26.6507 322.67 26.621 322.663 26.591 322.663C26.5609 322.663 26.5312 322.67 26.504 322.683L25.9745 322.993C25.9367 323.023 25.9291 323.069 25.9745 323.091Z" fill="#3A2C6D"/>
<path d="M25.1954 322.638L25.7173 322.978C25.7445 322.991 25.7742 322.997 25.8043 322.997C25.8344 322.997 25.8641 322.991 25.8913 322.978L26.4208 322.668C26.4737 322.668 26.4813 322.592 26.4208 322.569L25.8686 322.252C25.8406 322.237 25.8094 322.23 25.7778 322.23C25.7462 322.23 25.7151 322.237 25.6871 322.252L25.1651 322.554C25.1576 322.569 25.15 322.615 25.1954 322.638Z" fill="#3A2C6D"/>
<path d="M24.4164 322.222L24.9685 322.539C24.9957 322.552 25.0254 322.559 25.0555 322.559C25.0856 322.559 25.1153 322.552 25.1425 322.539L25.672 322.237C25.7249 322.237 25.7249 322.161 25.672 322.131L25.1198 321.813C25.0926 321.8 25.0629 321.794 25.0328 321.794C25.0027 321.794 24.973 321.8 24.9458 321.813L24.4164 322.116C24.371 322.116 24.371 322.161 24.4164 322.222Z" fill="#3A2C6D"/>
<path d="M23.6297 321.737L24.1818 322.055C24.2099 322.07 24.241 322.077 24.2726 322.077C24.3042 322.077 24.3353 322.07 24.3634 322.055L24.8853 321.753C24.9382 321.753 24.9458 321.677 24.8853 321.654L24.3331 321.329C24.3059 321.316 24.2762 321.31 24.2461 321.31C24.216 321.31 24.1863 321.316 24.1591 321.329L23.6297 321.639C23.5918 321.669 23.5843 321.715 23.6297 321.737Z" fill="#3A2C6D"/>
<path d="M22.8506 321.284L23.4028 321.609C23.43 321.622 23.4597 321.628 23.4898 321.628C23.5198 321.628 23.5495 321.622 23.5767 321.609L24.1062 321.299C24.1592 321.299 24.1667 321.223 24.1062 321.2L23.554 320.883C23.526 320.868 23.4949 320.861 23.4633 320.861C23.4317 320.861 23.4005 320.868 23.3725 320.883L22.8506 321.185C22.8128 321.216 22.8052 321.261 22.8506 321.284Z" fill="#3A2C6D"/>
<path d="M22.0715 320.837L22.6237 321.155C22.6509 321.168 22.6806 321.175 22.7107 321.175C22.7407 321.175 22.7704 321.168 22.7976 321.155L23.3271 320.852C23.3801 320.852 23.3801 320.777 23.3271 320.747L22.775 320.429C22.7477 320.416 22.718 320.409 22.688 320.409C22.6579 320.409 22.6282 320.416 22.601 320.429L22.0715 320.731C22.0261 320.762 22.0261 320.807 22.0715 320.837Z" fill="#3A2C6D"/>
<path d="M31.4433 326.253L32.593 326.911C32.6202 326.924 32.6499 326.931 32.68 326.931C32.71 326.931 32.7397 326.924 32.7669 326.911L33.2888 326.609C33.3418 326.609 33.3494 326.533 33.2888 326.503L32.1467 325.845C32.12 325.83 32.0901 325.822 32.0597 325.822C32.0293 325.822 31.9994 325.83 31.9727 325.845L31.4433 326.147C31.4054 326.177 31.3979 326.223 31.4433 326.253Z" fill="#3A2C6D"/>
<path d="M30.2935 326.457L30.8457 326.783C30.8729 326.795 30.9026 326.802 30.9327 326.802C30.9627 326.802 30.9924 326.795 31.0196 326.783L31.5491 326.472C31.6021 326.472 31.6096 326.397 31.5491 326.374L30.9969 326.056C30.9703 326.042 30.9404 326.034 30.91 326.034C30.8796 326.034 30.8497 326.042 30.823 326.056L30.2935 326.359C30.2557 326.389 30.2557 326.435 30.2935 326.457Z" fill="#3A2C6D"/>
<path d="M29.4993 326.004L30.0514 326.321C30.0786 326.334 30.1083 326.341 30.1384 326.341C30.1685 326.341 30.1982 326.334 30.2254 326.321L30.7549 326.019C30.8078 326.019 30.8154 325.943 30.7549 325.913L30.1951 325.595C30.1679 325.582 30.1382 325.576 30.1082 325.576C30.0781 325.576 30.0484 325.582 30.0212 325.595L29.4993 325.898C29.4993 325.935 29.4993 326.004 29.4993 326.004Z" fill="#3A2C6D"/>
<path d="M28.7428 325.557L29.295 325.875C29.3217 325.889 29.3516 325.897 29.382 325.897C29.4124 325.897 29.4423 325.889 29.469 325.875L29.9984 325.572C30.0438 325.572 30.0514 325.497 29.9984 325.474L29.4463 325.149C29.4191 325.136 29.3894 325.129 29.3593 325.129C29.3292 325.129 29.2995 325.136 29.2723 325.149L28.7428 325.459C28.6899 325.489 28.6899 325.535 28.7428 325.557Z" fill="#3A2C6D"/>
<path d="M27.9865 325.103L28.5386 325.429C28.5672 325.442 28.5981 325.448 28.6294 325.448C28.6607 325.448 28.6917 325.442 28.7202 325.429L29.2421 325.119C29.295 325.119 29.3026 325.043 29.2421 325.02L28.6899 324.703C28.6632 324.688 28.6333 324.68 28.6029 324.68C28.5725 324.68 28.5426 324.688 28.516 324.703L27.9865 325.005C27.9108 325.035 27.9033 325.081 27.9865 325.103Z" fill="#3A2C6D"/>
<path d="M27.1696 324.657L27.7217 324.975C27.7489 324.988 27.7786 324.994 27.8087 324.994C27.8388 324.994 27.8685 324.988 27.8957 324.975L28.4252 324.672C28.4781 324.672 28.4857 324.597 28.4252 324.566L27.873 324.249C27.8445 324.236 27.8136 324.229 27.7822 324.229C27.7509 324.229 27.72 324.236 27.6915 324.249L27.1696 324.551C27.1318 324.581 27.1242 324.627 27.1696 324.657Z" fill="#3A2C6D"/>
<path d="M26.3905 324.203L26.9426 324.521C26.9693 324.536 26.9992 324.543 27.0296 324.543C27.06 324.543 27.0899 324.536 27.1166 324.521L27.6461 324.218C27.699 324.218 27.699 324.143 27.6461 324.12L27.0939 323.802C27.0672 323.788 27.0373 323.78 27.0069 323.78C26.9765 323.78 26.9466 323.788 26.92 323.802L26.3905 324.105C26.3451 324.135 26.3451 324.181 26.3905 324.203Z" fill="#3A2C6D"/>
<path d="M25.6039 323.734L26.1561 324.052C26.1846 324.065 26.2155 324.072 26.2468 324.072C26.2781 324.072 26.3091 324.065 26.3376 324.052L26.8595 323.749C26.9125 323.749 26.92 323.674 26.8595 323.644L26.3073 323.326C26.2807 323.311 26.2508 323.304 26.2204 323.304C26.19 323.304 26.1601 323.311 26.1334 323.326L25.6039 323.628C25.5661 323.681 25.5585 323.734 25.6039 323.734Z" fill="#3A2C6D"/>
<path d="M24.8247 323.303L25.3769 323.621C25.4036 323.635 25.4335 323.643 25.4639 323.643C25.4943 323.643 25.5242 323.635 25.5509 323.621L26.0803 323.318C26.1333 323.318 26.1408 323.243 26.0803 323.212L25.5282 322.895C25.4997 322.882 25.4687 322.875 25.4374 322.875C25.4061 322.875 25.3751 322.882 25.3466 322.895L24.8247 323.205C24.7869 323.228 24.7793 323.273 24.8247 323.303Z" fill="#3A2C6D"/>
<path d="M24.0457 322.849L24.5979 323.167C24.6249 323.18 24.6547 323.187 24.6848 323.187C24.715 323.187 24.7448 323.18 24.7718 323.167L25.3013 322.857C25.3543 322.857 25.3543 322.781 25.3013 322.759L24.7416 322.441C24.7149 322.426 24.685 322.419 24.6546 322.419C24.6242 322.419 24.5943 322.426 24.5676 322.441L24.0381 322.743C24.0079 322.781 24.0003 322.827 24.0457 322.849Z" fill="#3A2C6D"/>
<path d="M23.2666 322.403L23.8187 322.721C23.846 322.734 23.8757 322.74 23.9057 322.74C23.9358 322.74 23.9655 322.734 23.9927 322.721L24.5222 322.418C24.5676 322.418 24.5751 322.343 24.5222 322.312L23.97 321.995C23.9428 321.982 23.9131 321.975 23.883 321.975C23.853 321.975 23.8233 321.982 23.7961 321.995L23.2666 322.297C23.2212 322.327 23.2212 322.373 23.2666 322.403Z" fill="#3A2C6D"/>
<path d="M22.48 321.949L23.0322 322.267C23.0602 322.282 23.0913 322.289 23.1229 322.289C23.1545 322.289 23.1857 322.282 23.2137 322.267L23.7356 321.964C23.7886 321.964 23.7961 321.889 23.7356 321.866L23.1834 321.541C23.1562 321.528 23.1265 321.521 23.0965 321.521C23.0664 321.521 23.0367 321.528 23.0095 321.541L22.48 321.851C22.4422 321.881 22.4346 321.927 22.48 321.949Z" fill="#3A2C6D"/>
<path d="M20.7327 320.943L22.2455 321.821C22.2727 321.833 22.3024 321.84 22.3324 321.84C22.3625 321.84 22.3922 321.833 22.4194 321.821L22.9489 321.511C23.0019 321.511 23.0094 321.435 22.9489 321.412L21.4361 320.535C21.4081 320.52 21.377 320.513 21.3454 320.513C21.3138 320.513 21.2826 320.52 21.2546 320.535L20.7327 320.837C20.6949 320.868 20.6873 320.913 20.7327 320.943Z" fill="#3A2C6D"/>
<path d="M31.0726 326.911L31.829 327.35C31.8562 327.363 31.8859 327.369 31.916 327.369C31.9461 327.369 31.9758 327.363 32.003 327.35L32.5324 327.04C32.5854 327.04 32.593 326.964 32.5324 326.941L31.776 326.503C31.7488 326.49 31.7191 326.483 31.6891 326.483C31.659 326.483 31.6293 326.49 31.6021 326.503L31.0726 326.813C31.0121 326.843 31.0121 326.888 31.0726 326.911Z" fill="#3A2C6D"/>
<path d="M36.8065 325.361L24.2655 318.114V308.281L24.3638 308.054L24.4622 308.009C24.5939 307.931 24.7441 307.89 24.8971 307.89C25.0501 307.89 25.2003 307.931 25.332 308.009L36.8065 314.627C36.9374 314.706 37.046 314.816 37.1215 314.949C37.197 315.081 37.237 315.231 37.2376 315.384V324.642C37.1544 325.088 37.0636 325.202 36.8065 325.361Z" fill="#E5E5E5"/>
<path d="M35.6568 315.8L24.2655 308.607V308.281L24.3638 308.054L24.4622 308.009C24.5939 307.931 24.7441 307.89 24.8971 307.89C25.0501 307.89 25.2003 307.931 25.332 308.009L36.8065 314.627C36.9476 314.708 37.0611 314.829 37.1317 314.975L35.6568 315.8Z" fill="#E5E5E5"/>
<path d="M24.5525 308.032L36.5943 314.983C36.6576 315.02 36.7103 315.073 36.7474 315.137C36.7845 315.2 36.8047 315.272 36.806 315.346V325.361L24.2651 318.114V308.198C24.2642 308.164 24.2725 308.13 24.2891 308.101C24.3057 308.071 24.3299 308.046 24.3594 308.029C24.3888 308.012 24.4222 308.004 24.4562 308.004C24.4902 308.004 24.5235 308.014 24.5525 308.032Z" fill="#DCEEFF"/>
<path d="M24.5525 308.032L36.5943 314.983C36.6576 315.02 36.7103 315.073 36.7474 315.137C36.7845 315.2 36.8047 315.272 36.806 315.346V325.361L24.2651 318.114V308.198C24.2642 308.164 24.2725 308.13 24.2891 308.101C24.3057 308.071 24.3299 308.046 24.3594 308.029C24.3888 308.012 24.4222 308.004 24.4562 308.004C24.4902 308.004 24.5235 308.014 24.5525 308.032Z" fill="#F4F4F4"/>
<path d="M36.8061 325.361V324.998L24.2651 317.759V318.114L36.8061 325.361Z" fill="#DBDBDB"/>
<path d="M24.5903 317.592V308.554L24.7416 308.637V317.517L24.5903 317.592Z" fill="#1E3779"/>
<path d="M24.7416 308.637V317.517L36.4051 324.226V315.369L24.7416 308.637Z" fill="#3A2C6D"/>
<path d="M24.5903 317.592L36.4052 324.408V324.226L24.7416 317.517L24.5903 317.592Z" fill="#031F60"/>
<path d="M11.0887 306.466C10.7862 307.222 11.5501 308.115 13.5697 308.735C15.5893 309.355 15.7708 308.554 15.7708 308.554C17.1178 309.157 18.4309 309.834 19.704 310.581C20.9143 311.428 21.4513 313.886 21.6177 318.031C21.8068 322.827 21.8219 329.937 21.6631 331.17C21.6631 331.17 19.3939 333.439 16.4969 333.189C13.6 332.94 8.70612 330.383 7.52614 328.401C7.52614 324.196 8.04805 323.507 7.3673 321.087C5.80914 315.543 4.98467 313.273 5.74862 309.582C6.36887 306.557 7.26141 306.171 8.44894 306.201C9.33291 306.243 10.2141 306.331 11.0887 306.466Z" fill="#F4F4F4"/>
<path d="M26.3905 323.182C24.0079 323.787 23.4482 322.282 23.138 321.042C22.3817 318.016 21.9732 315.308 21.4059 313.599C20.7403 311.587 20.0444 311.261 19.0611 310.868C17.9189 310.407 16.9281 311.382 17.3063 313.947C17.778 316.924 18.5094 319.855 19.4922 322.706C19.8401 323.989 20.5122 325.161 21.4437 326.109C22.6766 327.108 24.5298 327.062 27.3285 326.367C28.9699 325.808 30.5634 325.117 32.0937 324.302C32.6988 324.022 33.1678 323.833 34.3629 323.288C35.5468 322.771 36.5857 321.971 37.3885 320.958C37.9936 320.073 38.0768 319.657 37.9558 319.446C37.8347 319.234 37.5171 319.249 37.1994 319.62C36.7299 320.246 36.1507 320.781 35.4899 321.2C35.4899 321.2 36.2463 320.444 36.6472 319.922C37.0145 319.461 37.3174 318.952 37.5473 318.409C37.7667 317.895 37.3204 317.199 36.98 317.562C36.6396 317.925 36.4884 318.319 35.8681 319.075C35.5442 319.469 35.1733 319.822 34.7638 320.126C35.1476 319.61 35.4891 319.064 35.7849 318.493C36.0503 318.034 36.1789 317.509 36.1555 316.98C36.1555 316.715 35.7547 316.397 35.3992 316.904C35.0308 317.626 34.5734 318.3 34.0376 318.909C33.493 319.476 33.0317 319.801 33.0165 319.665C33.0014 319.529 33.3493 319.196 33.5384 318.546C33.7275 317.895 33.5384 317.192 33.1754 317.116C32.8123 317.04 32.8804 317.055 32.5929 317.676C32.1892 318.306 31.8278 318.963 31.5113 319.642C31.3247 320.276 30.9873 320.855 30.528 321.329C29.9531 321.927 28.6597 322.615 26.3905 323.182Z" fill="#FFCEA9"/>
<path d="M18.1534 310.46C19.7418 310.225 20.8688 310.944 21.5722 313.349C22.2757 315.754 22.7598 317.736 22.7598 317.736C22.1319 318.646 21.1788 319.279 20.0973 319.506C18.1987 319.968 17.5104 319.06 17.5104 319.06C17.5104 319.06 16.9809 316.533 16.6557 314.816C16.3305 313.099 16.217 310.747 18.1534 310.46Z" fill="#EDEDED"/>
<path d="M18.9703 298.123C18.9703 298.123 21.4815 294.303 16.0355 293.524C12.1098 292.964 9.58343 295.483 9.296 298.221C9.01614 300.838 10.6273 303.554 11.7845 304.635C12.928 304.927 14.1389 304.781 15.1807 304.227C15.2456 303.513 15.2709 302.796 15.2564 302.079C15.2564 302.079 13.3427 298.055 18.9703 298.123Z" fill="#3A2C6D"/>
<path d="M29.8699 346.464V334.989L20.7554 340.307L24.265 347.561L29.8699 346.464Z" fill="#C4C7D6"/>
<path d="M23.8944 335.647L27.3889 333.62L29.8623 335.05L26.2392 337.107L23.8944 335.647Z" fill="#D6D8E5"/>
<path opacity="0.4" d="M167.995 283.646L124.941 258.791C121.832 256.998 122.225 253.866 125.811 251.794L153.706 235.69L208.008 267.065L180.12 283.169C176.527 285.242 171.103 285.461 167.995 283.646Z" fill="#D6D8E5"/>
<path d="M171.141 281.823L128.08 256.96C124.979 255.167 125.372 252.044 128.95 249.971L156.845 233.867L211.147 265.212L183.251 281.323C179.666 283.388 174.242 283.646 171.141 281.823Z" fill="#B1B4C4"/>
<path d="M211.147 265.212V263.571L208.643 265.016L211.147 265.212Z" fill="#B1B4C4"/>
<path d="M125.985 254.003V252.331L128.564 253.397L125.985 254.003Z" fill="#B1B4C4"/>
<path d="M171.141 280.181L128.08 255.319C124.979 253.526 125.372 250.395 128.95 248.33L156.845 232.211L211.147 263.563L183.251 279.667C179.666 281.747 174.242 281.966 171.141 280.181Z" fill="#D6D8E5"/>
<path d="M156.997 232.294L150.272 209.996L205.164 241.484L211.147 263.571L156.997 232.294Z" fill="#9EA1AF"/>
<path d="M209.558 264.486L211.147 263.571L208.764 261.71L209.558 264.486Z" fill="#9EA1AF"/>
<path d="M155.264 233.134L148.54 210.835L203.432 242.324L209.558 264.486L155.264 233.134Z" fill="#B1B4C4"/>
<path d="M294.607 302.064L82.129 179.392C79.1489 177.668 76.736 173.054 76.736 169.083V4.7262C76.736 0.75515 79.1489 -1.07532 82.129 0.649255L294.607 123.291C297.587 125.008 300 129.622 300 133.6V298.017C300 301.958 297.587 303.788 294.607 302.064Z" fill="#C4C7D6"/>
<path d="M295.696 303.758L298.056 302.404L297.035 295.423L295.696 303.758Z" fill="#C4C7D6"/>
<path d="M76.3502 1.65525L78.6648 0.324005L81.9929 2.22255C81.9929 2.22255 78.4454 2.75959 78.3622 2.73689C78.279 2.7142 76.3502 1.65525 76.3502 1.65525Z" fill="#B1B4C4"/>
<path d="M292.655 303.191L80.1775 180.519C77.1973 178.795 74.7769 174.181 74.7769 170.21V5.85323C74.7769 1.87461 77.1973 0.0517099 80.1775 1.76872L292.648 124.44C295.628 126.165 298.049 130.779 298.049 134.757V299.106C298.056 303.085 295.636 304.908 292.655 303.191Z" fill="#E4E7F2"/>
<path d="M292.285 303.403L79.8069 180.731C76.8267 179.006 74.4138 174.392 74.4138 170.421V6.04989C74.4138 2.07883 76.8267 0.248367 79.8069 1.97294L292.285 124.66C295.265 126.377 297.678 130.991 297.678 134.969V299.326C297.678 303.312 295.265 305.127 292.285 303.403Z" fill="#201D38"/>
<path opacity="0.3" d="M294.758 293.411L77.1066 167.751L77.22 6.72308C77.22 5.07414 78.3773 4.40852 79.8069 5.21029L292.285 127.905C293.038 128.395 293.665 129.056 294.114 129.834C294.564 130.612 294.823 131.485 294.872 132.382L294.758 293.411Z" fill="#3A3756"/>
<path d="M209.233 107.467L194.809 99.139V93.935L209.233 102.263V107.467Z" fill="#A298E2"/>
<path d="M242.575 126.732L211.933 109.025V103.821L242.575 121.528V126.732Z" fill="#F4CE2C"/>
<path d="M209.233 124.115L194.809 115.795V110.591L209.233 118.911V124.115Z" fill="#A298E2"/>
<path d="M222.084 131.664L211.933 125.681V120.477L222.084 126.46V131.664Z" fill="#4D3BFF"/>
<path d="M209.233 132.443L194.809 124.115V118.911L209.233 127.239V132.443Z" fill="#A298E2"/>
<path d="M229.058 143.887L211.933 134.001V128.797L229.058 138.683V143.887Z" fill="#4D3BFF"/>
<path d="M209.233 140.763L194.809 132.443V127.239L209.233 135.567V140.763Z" fill="#A298E2"/>
<path d="M257.097 168.341L211.933 142.329V137.125L257.097 163.145V168.341Z" fill="#FF8657"/>
<path d="M209.233 115.795L194.809 107.467V102.263L209.233 110.591V115.795Z" fill="#A298E2"/>
<path d="M268.194 149.87L211.933 117.353V112.149L268.194 144.666V149.87Z" fill="#A298E2"/>
<path d="M209.233 149.091L194.809 140.763V135.559L209.233 143.887V149.091Z" fill="#A298E2"/>
<path d="M260.6 179.271L211.933 150.657V145.453L260.6 174.067V179.271Z" fill="#C33AFC"/>
<path d="M209.233 165.747L194.809 157.419V152.215L209.233 160.543V165.747Z" fill="#A298E2"/>
<path d="M268.716 200.087L211.933 167.305V162.101L268.716 194.883V200.087Z" fill="#A298E2"/>
<path d="M209.233 174.067L194.809 165.747V160.543L209.233 168.863V174.067Z" fill="#A298E2"/>
<path d="M229.058 185.519L211.933 175.625V170.429L229.058 180.315V185.519Z" fill="#C33AFC"/>
<path d="M209.233 182.395L194.809 174.067V168.863L209.233 177.191V182.395Z" fill="#A298E2"/>
<path d="M246.924 204.247L211.933 183.953V178.749L246.924 199.043V204.247Z" fill="#4D3BFF"/>
<path d="M209.233 157.419L194.809 149.091V143.887L209.233 152.215V157.419Z" fill="#A298E2"/>
<path d="M218.242 162.623L211.933 158.977V153.773L218.242 157.419V162.623Z" fill="#4D3BFF"/>
<path d="M209.233 190.723L194.809 182.395V177.191L209.233 185.519V190.723Z" fill="#A298E2"/>
<path d="M234.519 205.291L211.933 192.281V187.077L234.519 200.087V205.291Z" fill="#C33AFC"/>
<path d="M209.233 207.371L194.809 199.043V193.839L209.233 202.167V207.371Z" fill="#A298E2"/>
<path d="M244.889 227.718L211.933 208.929V203.725L244.889 222.514V227.718Z" fill="#FF8657"/>
<path d="M209.233 215.699L194.809 207.371V202.167L209.233 210.495V215.699Z" fill="#A298E2"/>
<path d="M216.048 219.859L211.933 217.257V212.053L216.048 214.655V219.859Z" fill="#A298E2"/>
<path d="M209.233 224.019L194.809 215.699V210.495L209.233 218.815V224.019Z" fill="#A298E2"/>
<path d="M230.836 236.469L211.933 225.585V220.381L230.836 231.265V236.469Z" fill="#F4CE2C"/>
<path d="M209.233 199.043L194.809 190.723V185.511L209.233 193.839V199.043Z" fill="#A298E2"/>
<path d="M238.233 215.699L211.933 200.601V195.405L238.233 210.495V215.699Z" fill="#4D3BFF"/>
<path d="M115.94 55.4347L101.515 47.1068V41.9028L115.94 50.2307V55.4347Z" fill="#A298E2"/>
<path d="M179.93 92.3769L118.64 56.9929V51.7889L179.93 87.1729V92.3769Z" fill="#C33AFC"/>
<path d="M115.94 72.0829L101.515 63.755V58.551L115.94 66.8789V72.0829Z" fill="#A298E2"/>
<path d="M159.198 97.0589L118.64 73.641V68.4371L159.198 91.8549V97.0589Z" fill="#F4CE2C"/>
<path d="M115.94 80.4107L101.515 72.0829V66.8789L115.94 75.2068V80.4107Z" fill="#A298E2"/>
<path d="M169.114 111.105L118.64 81.9689V76.7649L169.114 105.901V111.105Z" fill="#FF8657"/>
<path d="M115.94 88.731L101.515 80.4107V75.2068L115.94 83.5271V88.731Z" fill="#A298E2"/>
<path d="M153.79 110.591L118.64 90.2968V85.0928L153.79 105.387V110.591Z" fill="#A298E2"/>
<path d="M115.94 63.755L101.515 55.4271V50.2307L115.94 58.551V63.755Z" fill="#A298E2"/>
<path d="M149.281 83.0127L118.64 65.3207V60.1168L149.281 77.8088V83.0127Z" fill="#4D3BFF"/>
<path d="M115.94 97.0589L101.515 88.731V83.5271L115.94 91.8549V97.0589Z" fill="#A298E2"/>
<path d="M136.665 109.025L118.64 98.6171V93.4131L136.665 103.821V109.025Z" fill="#C33AFC"/>
<path d="M115.94 113.707L101.515 105.379V100.183L115.94 108.503V113.707Z" fill="#A298E2"/>
<path d="M175.422 148.055L118.64 115.273V110.069L175.422 142.851V148.055Z" fill="#F4CE2C"/>
<path d="M115.94 122.035L101.515 113.707V108.503L115.94 116.831V122.035Z" fill="#A298E2"/>
<path d="M135.765 133.479L118.64 123.593V118.389L135.765 128.275V133.479Z" fill="#FF8657"/>
<path d="M115.94 130.363L101.515 122.035V116.831L115.94 125.159V130.363Z" fill="#A298E2"/>
<path d="M169.114 161.057L118.64 131.921V126.717L169.114 155.861V161.057Z" fill="#A298E2"/>
<path d="M115.94 105.387L101.515 97.0589V91.8549L115.94 100.183V105.387Z" fill="#A298E2"/>
<path d="M166.406 134.523L118.64 106.945V101.741L166.406 129.319V134.523Z" fill="#4D3BFF"/>
<path d="M115.94 138.683L101.515 130.355V125.159L115.94 133.479V138.683Z" fill="#A298E2"/>
<path d="M124.948 143.887L118.64 140.249V135.045L124.948 138.683V143.887Z" fill="#C33AFC"/>
<path d="M115.94 155.339L101.515 147.011V141.807L115.94 150.135V155.339Z" fill="#A298E2"/>
<path d="M130.357 163.659L118.64 156.897V151.693L130.357 158.455V163.659Z" fill="#F4CE2C"/>
<path d="M115.94 163.659L101.515 155.339V150.135L115.94 158.455V163.659Z" fill="#A298E2"/>
<path d="M149.281 182.917L118.64 165.225V160.021L149.281 177.713V182.917Z" fill="#FF8657"/>
<path d="M115.94 171.987L101.515 163.659V158.455L115.94 166.783V171.987Z" fill="#A298E2"/>
<path d="M167.306 201.645L118.64 173.545V168.341L167.306 196.441V201.645Z" fill="#A298E2"/>
<path d="M115.94 147.011L101.515 138.683V133.479L115.94 141.807V147.011Z" fill="#A298E2"/>
<path d="M179.93 183.953L118.64 148.569V143.365L179.93 178.749V183.953Z" fill="#4D3BFF"/>
<path opacity="0.4" d="M226.728 378.195C244.207 378.195 258.376 370.013 258.376 359.92C258.376 349.827 244.207 341.646 226.728 341.646C209.25 341.646 195.081 349.827 195.081 359.92C195.081 370.013 209.25 378.195 226.728 378.195Z" fill="#D6D8E5"/>
<path d="M261.485 357.326V308.607L198.318 310.195L198.454 355.125C197.274 360.533 200.27 366.183 207.463 370.336C219.822 377.468 239.859 377.476 252.219 370.336C258.429 366.728 261.515 362.023 261.485 357.326Z" fill="#A6CE28"/>
<path d="M229.837 326.858C247.316 326.858 261.485 318.676 261.485 308.584C261.485 298.491 247.316 290.309 229.837 290.309C212.359 290.309 198.19 298.491 198.19 308.584C198.19 318.676 212.359 326.858 229.837 326.858Z" fill="#BCD64D"/>
<path d="M256.485 308.606C256.485 311.579 254.011 314.703 249.715 317.192C245.025 319.884 238.619 321.548 231.872 321.821C231.199 321.821 230.525 321.866 229.845 321.866C222.356 321.866 215.118 320.157 209.967 317.192C205.67 314.703 203.197 311.579 203.197 308.606C203.197 305.634 205.67 302.51 209.967 300.021C215.118 297.049 222.356 295.339 229.837 295.339C230.518 295.339 231.199 295.339 231.872 295.385C238.619 295.657 245.025 297.321 249.715 300.021C254.011 302.487 256.485 305.581 256.485 308.606Z" fill="#28221C"/>
<path opacity="0.07" d="M256.485 308.606C256.485 311.579 254.011 314.703 249.715 317.192C245.025 319.884 238.619 321.548 231.872 321.821C225.125 321.548 218.711 319.884 214.028 317.192C209.725 314.658 207.251 311.556 207.251 308.606C207.251 305.657 209.717 302.51 214.013 300.021C218.703 297.321 225.117 295.657 231.864 295.385C238.611 295.657 245.018 297.321 249.707 300.021C254.011 302.487 256.485 305.581 256.485 308.606Z" fill="white"/>
<path d="M256.855 331.155L250.139 327.267L246.871 329.158L250.139 331.049V332.289L256.439 335.92L256.25 337.085C257.166 337.841 260.426 343.892 260.426 343.892L260.653 343.68V359.36C260.653 363.475 258.24 362.083 257.211 361.486L250.139 357.401L246.871 359.285L250.139 361.168V362.409L257.211 366.493C257.926 366.922 258.687 367.267 259.48 367.522L259.057 369.488L262.717 367.424H262.77H262.823C264.336 366.531 264.979 364.36 264.979 361.925V345.473C265.009 338.522 259.677 333.068 256.855 331.155Z" fill="#8DA01F"/>
<path d="M253.943 368.407L246.871 364.322V359.285L253.943 363.369C254.972 363.959 257.385 365.359 257.385 361.236V344.86C257.385 340.988 253.883 338.31 253.285 337.886L246.871 334.18V329.158L253.588 333.045C256.417 334.959 261.712 340.42 261.712 347.372V363.763C261.712 368.187 259.692 371.72 253.943 368.407Z" fill="#99B524"/>
</svg>
